<svg xmlns="http://www.w3.org/2000/svg" xmlns:xlink="http://www.w3.org/1999/xlink" aria-hidden="true" role="img" class="iconify iconify--logos" width="32" height="32" preserveAspectRatio="xMidYMid meet" viewBox="0 0 256 256"><path fill="#F7DF1E" d="M0 0h256v256H0V0Z"></path>
<path d="m67.312 213.932l19.59-11.856c3.78 6.701 7.218 12.371 15.465 12.371c7.905 0 12.89-3.092 12.89-15.12v-81.798h24.057v82.138c0 24.917-14.606 36.259-35.916 36.259c-19.245 0-30.416-9.967-36.087-21.996m85.07-2.576l19.588-11.341c5.157 8.421 11.859 14.607 23.715 14.607c9.969 0 16.325-4.984 16.325-11.858c0-8.248-6.53-11.17-17.528-15.98l-6.013-2.58c-17.357-7.387-28.87-16.667-28.87-36.257c0-18.044 13.747-31.792 35.228-31.792c15.294 0 26.292 5.328 34.196 19.247l-18.732 12.03c-4.125-7.389-8.591-10.31-15.465-10.31c-7.046 0-11.514 4.468-11.514 10.31c0 7.217 4.468 10.14 14.778 14.608l6.014 2.577c20.45 8.765 31.963 17.7 31.963 37.804c0 21.654-17.012 33.51-39.867 33.51c-22.339 0-36.774-10.654-43.819-24.574"></path>
<defs>
<symbol id="icon-twitter" viewBox="0 0 32 32">
<path stroke-linejoin="round" stroke-linecap="round" stroke-miterlimit="4" stroke-width="2" d="M30.667 4c-1.2 0.856-2.591 1.552-4.084 2.013l-0.103 0.027c-1.101-1.261-2.712-2.053-4.507-2.053-3.299 0-5.973 2.674-5.973 5.973 0 0.028 0 0.056 0.001 0.084l-0-0.004v1.333c-0.11 0.003-0.239 0.005-0.368 0.005-4.79 0-9.027-2.37-11.602-6.001l-0.030-0.044s-5.333 12 6.667 17.333c-2.442 1.677-5.462 2.679-8.716 2.679-0.217 0-0.433-0.004-0.648-0.013l0.031 0.001c12 6.667 26.667 0 26.667-15.333 0-0.372-0.037-0.741-0.107-1.107 1.323-1.305 2.293-2.963 2.758-4.822l0.015-0.071z"></path>
</symbol>
<symbol id="icon-facebook" viewBox="0 0 32 32">
<path stroke-linejoin="round" stroke-linecap="round" stroke-miterlimit="4" stroke-width="2" d="M24 2.667h-4c-3.682 0-6.667 2.985-6.667 6.667v0 4h-4v5.333h4v10.667h5.333v-10.667h4l1.333-5.333h-5.333v-4c0-0.736 0.597-1.333 1.333-1.333v0h4v-5.333z"></path>
</symbol>
<symbol id="icon-instagram" viewBox="0 0 32 32">
<path stroke-linejoin="round" stroke-linecap="round" stroke-miterlimit="4" stroke-width="2" d="M22.667 2.667h-13.333c-3.682 0-6.667 2.985-6.667 6.667v0 13.333c0 3.682 2.985 6.667 6.667 6.667v0h13.333c3.682 0 6.667-2.985 6.667-6.667v0-13.333c0-3.682-2.985-6.667-6.667-6.667v0z"></path>
<path stroke-linejoin="round" stroke-linecap="round" stroke-miterlimit="4" stroke-width="2" d="M21.333 15.16c0.042 0.251 0.066 0.54 0.066 0.834 0 2.946-2.388 5.333-5.333 5.333-2.688 0-4.911-1.988-5.28-4.574l-0.003-0.028c-0.032-0.22-0.050-0.473-0.050-0.731 0-2.946 2.388-5.333 5.333-5.333 2.651 0 4.85 1.934 5.264 4.468l0.004 0.031zM23.333 8.667h0.016"></path>
</symbol>
<symbol id="icon-x-close-1" viewBox="0 0 32 32">
<path stroke-linejoin="round" stroke-linecap="round" stroke-miterlimit="4" stroke-width="2" d="M24 8l-16 16M8 8l16 16"></path>
</symbol>
<symbol id="icon-bnt-nextArrow" viewBox="0 0 18 32">
<path stroke-linejoin="round" stroke-linecap="round" stroke-miterlimit="4" stroke-width="4" d="M2 30l14-14-14-14"></path>
</symbol>
<symbol id="icon-eqqmail" viewBox="0 0 24 32">
<path d="M20 8h-16c-1.1 0-1.989 0.9-1.989 2l-0.011 12c0 1.1 0.9 2 2 2h16c1.1 0 2-0.9 2-2v-12c0-1.1-0.9-2-2-2zM19.6 12.251l-7.069 4.419c-0.151 0.094-0.334 0.15-0.531 0.15s-0.38-0.056-0.535-0.153l0.004 0.002-7.069-4.419c-0.252-0.15-0.418-0.422-0.418-0.731 0-0.469 0.38-0.849 0.849-0.849 0.174 0 0.337 0.053 0.471 0.143l6.697 4.187 6.7-4.191c0.132-0.088 0.294-0.141 0.468-0.141 0.469 0 0.849 0.38 0.849 0.849 0 0.31-0.166 0.581-0.414 0.729l-0.004 0.002z"></path>
</symbol>
<symbol id="icon-bnt-prevArrow" viewBox="0 0 32 32">
<path stroke-linejoin="round" stroke-linecap="round" stroke-miterlimit="4" stroke-width="1.7778" d="M19.556 22.222l-6.222-6.222 6.222-6.222"></path>
</symbol>
<symbol id="icon-map-1" viewBox="0 0 26 32">
<path fill="#121212" style="fill: var(--color1, #121212)" d="M25.905 13.091c0 10.182-12.952 18.909-12.952 18.909s-12.952-8.727-12.952-18.909c0-3.472 1.365-6.802 3.794-9.257 2.335-2.365 5.575-3.83 9.157-3.834h0.001c3.583 0.003 6.824 1.469 9.157 3.833l0.001 0.001c2.346 2.376 3.794 5.641 3.794 9.246 0 0.004 0 0.008 0 0.012v-0.001z"></path>
<path fill="#f7f7f7" style="fill: var(--color2, #f7f7f7)" d="M12.952 17.455c2.385 0 4.318-1.954 4.318-4.364s-1.933-4.363-4.318-4.363-4.317 1.954-4.317 4.363c0 2.41 1.933 4.363 4.317 4.363z"></path>
</symbol>
<symbol id="icon-humburger" viewBox="0 0 47 32">
<path d="M-0.221 2.077c0-1.205 0.977-2.182 2.182-2.182v0h42.964c1.205 0 2.182 0.977 2.182 2.182s-0.977 2.182-2.182 2.182v0h-42.964c-1.205 0-2.182-0.977-2.182-2.182v0zM-0.221 15.615c0-1.205 0.977-2.182 2.182-2.182v0h42.964c1.205 0 2.182 0.977 2.182 2.182s-0.977 2.182-2.182 2.182v0h-42.964c-1.205 0-2.182-0.977-2.182-2.182v0zM-0.221 29.153c0-1.205 0.977-2.182 2.182-2.182v0h42.964c1.205 0 2.182 0.977 2.182 2.182s-0.977 2.182-2.182 2.182v0h-42.964c-1.205 0-2.182-0.977-2.182-2.182v0z"></path>
</symbol>
<symbol></symbol>
</defs>
</svg>